<svg width="27" height="31" viewBox="0 0 27 31" fill="none" xmlns="http://www.w3.org/2000/svg">
<path d="M25.952 10.0998C26.109 9.60742 26.0751 9.08418 25.8524 8.61227C25.2971 7.43547 24.5708 6.33924 23.6938 5.35404C23.5324 5.17275 23.2546 5.1567 23.0733 5.31807C22.892 5.47943 22.8759 5.75717 23.0373 5.93852C23.8584 6.86084 24.5382 7.8867 25.0576 8.98744C25.1953 9.27918 25.2066 9.60549 25.0893 9.90631C24.7209 10.8514 23.3896 10.9085 22.9495 9.98465C22.211 8.43438 21.1001 7.0709 19.7368 6.04141C17.8825 4.64125 15.674 3.90109 13.3501 3.90109C11.0678 3.90109 8.89137 4.61729 7.05609 5.97221C5.6775 6.98998 4.59615 8.27424 3.84205 9.78924C3.39094 10.6956 2.0652 10.6337 1.7066 9.67791C1.59316 9.37563 1.60928 9.0509 1.75189 8.7635C2.36988 7.51791 3.19312 6.37645 4.19877 5.37086C6.64312 2.92627 9.89309 1.58008 13.3501 1.58008C16.4134 1.58008 19.27 2.6098 21.6111 4.55793C21.7976 4.7132 22.0747 4.68783 22.2299 4.50127C22.3852 4.31465 22.3598 4.03762 22.1732 3.8824C19.6724 1.80121 16.6213 0.701172 13.3501 0.701172C9.65836 0.701172 6.18762 2.13877 3.57727 4.74918C2.50406 5.82238 1.62498 7.04154 0.96457 8.37279C0.734062 8.83738 0.690996 9.35641 0.838184 9.8493C0.28248 11.339 0 12.91 0 14.5219V20.7087C0 22.8077 1.70766 24.5154 3.8066 24.5154H5.76228C6.90832 24.5154 7.84066 23.583 7.84066 22.4369V15.6708C7.84066 14.5247 6.90832 13.5924 5.76228 13.5924H3.8066C3.5915 13.5924 3.38086 13.6112 3.17537 13.6457C3.25014 12.7702 3.43699 11.912 3.7333 11.0854C4.10912 10.8925 4.4284 10.5835 4.62885 10.1808C5.32031 8.79162 6.3126 7.61354 7.57805 6.67926C9.26115 5.43672 11.257 4.77994 13.3501 4.77994C15.4813 4.77994 17.5067 5.45869 19.2071 6.74277C20.4582 7.68754 21.4779 8.93922 22.1559 10.3625C22.3502 10.7702 22.6637 11.0851 23.0358 11.2843C23.2923 12.0493 23.4561 12.8407 23.525 13.6457C23.3194 13.6112 23.1087 13.5923 22.8935 13.5923H20.9378C19.7918 13.5923 18.8595 14.5247 18.8595 15.6707V22.4369C18.8595 23.583 19.7918 24.5153 20.9378 24.5153H22.8935C23.2078 24.5153 23.513 24.4763 23.8054 24.4041C23.0664 26.2005 21.2875 27.4335 19.2956 27.4335H18.8856C18.5155 26.9642 17.9425 26.6621 17.2998 26.6621H14.326C13.2125 26.6621 12.3065 27.568 12.3065 28.6816C12.3065 29.7952 13.2125 30.7012 14.326 30.7012H17.2998C17.9264 30.7012 18.4873 30.4143 18.8579 29.9651H19.2956C23.3785 29.9651 26.7001 26.6434 26.7001 22.5606V20.7088C26.7001 20.1015 26.7001 15.1667 26.7001 14.522C26.7001 13.0027 26.448 11.516 25.952 10.0998ZM4.64766 14.4713V19.9245C4.64766 20.1672 4.84441 20.3639 5.08711 20.3639C5.3298 20.3639 5.52656 20.1672 5.52656 19.9245V14.4713H5.76223C6.42363 14.4713 6.9617 15.0095 6.9617 15.6708V22.437C6.9617 23.0984 6.42357 23.6365 5.76223 23.6365H5.52656V21.979C5.52656 21.7363 5.3298 21.5396 5.08711 21.5396C4.84441 21.5396 4.64766 21.7363 4.64766 21.979V23.6365H3.8066C2.19229 23.6365 0.878906 22.3231 0.878906 20.7088V17.3992C0.878906 15.7848 2.19229 14.4714 3.8066 14.4714H4.64766V14.4713ZM0.878906 14.9692V14.5219C0.878906 13.2448 1.06822 11.9956 1.44182 10.7973C1.81471 11.129 2.27139 11.2988 2.73299 11.3125C2.47693 12.1572 2.32377 13.0289 2.27572 13.915C1.73191 14.1548 1.2542 14.5178 0.878906 14.9692ZM19.7384 22.4369V15.6708C19.7384 15.0094 20.2765 14.4713 20.9378 14.4713H21.1735V23.6364H20.9378C20.2764 23.6365 19.7384 23.0983 19.7384 22.4369ZM22.0525 23.6365V14.4713H22.8935C24.5079 14.4713 25.8213 15.7847 25.8213 17.3991V20.7087C25.8213 22.3231 24.5079 23.6365 22.8935 23.6365H22.0525ZM17.2998 29.8223H14.326C13.6971 29.8223 13.1854 29.3106 13.1854 28.6817C13.1854 28.0527 13.6971 27.5411 14.326 27.5411H17.2998C17.9287 27.5411 18.4404 28.0527 18.4404 28.6817C18.4404 29.3106 17.9287 29.8223 17.2998 29.8223ZM19.2956 29.0862H19.2786C19.3305 28.8319 19.333 28.5718 19.2849 28.3125H19.2957C21.9246 28.3125 24.2391 26.4926 24.8746 23.958C25.221 23.746 25.5304 23.4798 25.7924 23.1719C25.4831 26.4845 22.6877 29.0862 19.2956 29.0862ZM24.4244 13.9149C24.3804 13.1044 24.2481 12.3048 24.0296 11.5271C24.512 11.521 24.9724 11.3437 25.3305 11.0392C25.6563 12.1645 25.8212 13.3324 25.8212 14.5219V14.9692C25.4459 14.5178 24.9682 14.1548 24.4244 13.9149Z" fill="#FF630B"/>
</svg>
