<svg width="30" height="31" viewBox="0 0 30 31" fill="none" xmlns="http://www.w3.org/2000/svg">
<path d="M8.31483 21.1904C8.25966 21.1904 8.20506 21.1792 8.15438 21.1573C8.1037 21.1355 8.05801 21.1036 8.0201 21.0635C7.74078 20.7675 7.46997 20.4679 7.20726 20.1684C7.14344 20.0868 7.11324 19.984 7.12284 19.8809C7.13244 19.7778 7.18113 19.6823 7.25891 19.6139C7.33669 19.5456 7.43767 19.5096 7.54114 19.5133C7.64461 19.5171 7.74273 19.5602 7.81537 19.634C8.07159 19.9259 8.33591 20.2186 8.60794 20.5069C8.66223 20.5645 8.69848 20.6367 8.71222 20.7146C8.72595 20.7926 8.71658 20.8728 8.68524 20.9455C8.6539 21.0182 8.60197 21.0801 8.53586 21.1236C8.46976 21.1671 8.39236 21.1903 8.31321 21.1904H8.31483Z" fill="#FF630B"/>
<path d="M23.0676 29.8903C20.4394 29.8903 16.8511 28.3542 13.2227 25.6741C13.1742 25.645 13.1323 25.6061 13.0996 25.5599C13.067 25.5137 13.0445 25.4611 13.0334 25.4057C13.0223 25.3502 13.0229 25.293 13.0353 25.2378C13.0476 25.1826 13.0714 25.1305 13.105 25.0851C13.1387 25.0396 13.1815 25.0016 13.2307 24.9737C13.2799 24.9458 13.3344 24.9284 13.3907 24.9228C13.447 24.9172 13.5038 24.9234 13.5576 24.9411C13.6113 24.9588 13.6608 24.9875 13.7027 25.0254C17.1961 27.6014 20.6092 29.0795 23.0676 29.0795C23.5235 29.1097 23.9808 29.0482 24.4125 28.8987C24.8442 28.7492 25.2415 28.5147 25.5811 28.2091L28.2933 25.4969C28.3478 25.4423 28.3785 25.3682 28.3785 25.291C28.3785 25.2138 28.3478 25.1397 28.2933 25.085L22.869 19.6607C22.8134 19.608 22.7397 19.5785 22.663 19.5785C22.5864 19.5785 22.5127 19.608 22.4571 19.6607L20.4827 21.635C19.0569 23.0608 15.431 21.6723 12.2275 18.4729C9.02396 15.2734 7.63869 11.643 9.06531 10.2172L11.0396 8.24287C11.0939 8.18806 11.1243 8.11405 11.1243 8.03692C11.1243 7.95979 11.0939 7.88578 11.0396 7.83098L5.61612 2.40665C5.56147 2.35209 5.4874 2.32144 5.41017 2.32144C5.33295 2.32144 5.25888 2.35209 5.20423 2.40665L2.49206 5.12003C0.527875 7.08422 1.97801 12.1583 6.01909 17.4589C6.05138 17.5013 6.07501 17.5496 6.08864 17.6011C6.10226 17.6526 6.10561 17.7062 6.0985 17.759C6.09138 17.8118 6.07394 17.8626 6.04717 17.9087C6.0204 17.9547 5.98482 17.995 5.94247 18.0273C5.90012 18.0596 5.85182 18.0832 5.80034 18.0969C5.74885 18.1105 5.69519 18.1138 5.64241 18.1067C5.58963 18.0996 5.53877 18.0822 5.49273 18.0554C5.4467 18.0286 5.40638 17.9931 5.37409 17.9507C1.01355 12.2272 -0.376585 6.84057 1.91882 4.54557L4.63098 1.83341C4.83789 1.62724 5.11808 1.51147 5.41017 1.51147C5.70226 1.51147 5.98245 1.62724 6.18936 1.83341L11.6137 7.25773C11.8201 7.46454 11.936 7.74476 11.936 8.03692C11.936 8.32908 11.8201 8.60931 11.6137 8.81611L9.63936 10.7904C8.70693 11.7229 9.7772 14.8712 12.8015 17.8996C15.8258 20.928 18.9779 21.9942 19.9103 21.0618L21.8846 19.0875C22.0946 18.8871 22.3736 18.7753 22.6638 18.7753C22.954 18.7753 23.2331 18.8871 23.443 19.0875L28.8673 24.5118C29.0737 24.7186 29.1896 24.9988 29.1896 25.291C29.1896 25.5831 29.0737 25.8634 28.8673 26.0702L26.1552 28.7823C25.7415 29.1651 25.2548 29.4606 24.7243 29.6509C24.1938 29.8413 23.6303 29.9227 23.0676 29.8903Z" fill="#FF630B"/>
<path d="M11.2297 23.9756C11.1334 23.9757 11.0402 23.9414 10.967 23.8787C10.6629 23.62 10.3633 23.3492 10.0638 23.0743C10.0245 23.0384 9.99275 22.995 9.97028 22.9467C9.9478 22.8985 9.93505 22.8462 9.93275 22.793C9.93045 22.7398 9.93866 22.6867 9.95689 22.6367C9.97513 22.5867 10.003 22.5407 10.039 22.5015C10.075 22.4623 10.1184 22.4305 10.1666 22.408C10.2149 22.3855 10.2671 22.3728 10.3203 22.3705C10.3735 22.3682 10.4266 22.3764 10.4767 22.3946C10.5267 22.4129 10.5726 22.4408 10.6119 22.4768C10.9042 22.7451 11.1965 23.0091 11.4928 23.2616C11.5559 23.3154 11.601 23.3873 11.622 23.4675C11.643 23.5478 11.6389 23.6325 11.6102 23.7103C11.5815 23.7882 11.5297 23.8553 11.4616 23.9027C11.3936 23.9502 11.3126 23.9756 11.2297 23.9756Z" fill="#FF630B"/>
<path d="M9.35345 10.9077C9.24594 10.9076 9.14284 10.8649 9.06683 10.7889L2.65819 4.38024C2.61947 4.34284 2.58858 4.2981 2.56734 4.24864C2.54609 4.19918 2.53491 4.14598 2.53444 4.09216C2.53397 4.03833 2.54423 3.98494 2.56461 3.93512C2.585 3.8853 2.6151 3.84003 2.65316 3.80197C2.69123 3.7639 2.73649 3.7338 2.78632 3.71342C2.83614 3.69303 2.88952 3.68278 2.94335 3.68324C2.99718 3.68371 3.05038 3.69489 3.09984 3.71614C3.1493 3.73739 3.19403 3.76827 3.23143 3.80699L9.64007 10.2156C9.69675 10.2723 9.73535 10.3446 9.75099 10.4232C9.76662 10.5018 9.75859 10.5833 9.72792 10.6574C9.69724 10.7315 9.64529 10.7948 9.57864 10.8393C9.51199 10.8839 9.43362 10.9076 9.35345 10.9077Z" fill="#FF630B"/>
<path d="M26.6077 28.1618C26.5001 28.1617 26.397 28.119 26.321 28.043L19.9124 21.6343C19.8385 21.5579 19.7977 21.4554 19.7986 21.3491C19.7995 21.2429 19.8422 21.1412 19.9173 21.066C19.9925 20.9908 20.0942 20.9482 20.2005 20.9473C20.3068 20.9464 20.4092 20.9872 20.4856 21.0611L26.8943 27.4697C26.9509 27.5264 26.9895 27.5987 27.0052 27.6773C27.0208 27.7559 27.0128 27.8374 26.9821 27.9115C26.9514 27.9855 26.8995 28.0489 26.8328 28.0934C26.7662 28.138 26.6878 28.1617 26.6077 28.1618Z" fill="#FF630B"/>
<path d="M27.1623 15.2958C27.0548 15.2958 26.9516 15.2531 26.8756 15.1771C26.7996 15.1011 26.7569 14.9979 26.7569 14.8904C26.7537 11.9884 25.5994 9.20609 23.5473 7.15403C21.4953 5.10196 18.713 3.9477 15.8109 3.94448C15.7034 3.94448 15.6003 3.90177 15.5243 3.82574C15.4482 3.74971 15.4055 3.64659 15.4055 3.53907C15.4055 3.43155 15.4482 3.32844 15.5243 3.25241C15.6003 3.17638 15.7034 3.13367 15.8109 3.13367C18.928 3.1371 21.9163 4.37686 24.1204 6.58093C26.3245 8.78501 27.5642 11.7734 27.5677 14.8904C27.5677 14.9979 27.525 15.1011 27.4489 15.1771C27.3729 15.2531 27.2698 15.2958 27.1623 15.2958Z" fill="#FF630B"/>
<path d="M24.0188 15.2957C23.9113 15.2957 23.8081 15.253 23.7321 15.177C23.6561 15.101 23.6134 14.9979 23.6134 14.8903C23.611 12.8217 22.7882 10.8385 21.3255 9.3758C19.8627 7.91307 17.8795 7.09027 15.8109 7.08791C15.7034 7.08791 15.6003 7.0452 15.5243 6.96917C15.4482 6.89314 15.4055 6.79003 15.4055 6.68251C15.4055 6.57498 15.4482 6.47187 15.5243 6.39584C15.6003 6.31981 15.7034 6.2771 15.8109 6.2771C18.0945 6.27967 20.2838 7.18797 21.8986 8.8027C23.5133 10.4174 24.4216 12.6068 24.4242 14.8903C24.4242 14.9979 24.3815 15.101 24.3054 15.177C24.2294 15.253 24.1263 15.2957 24.0188 15.2957Z" fill="#FF630B"/>
<path d="M20.8752 15.2959C20.7677 15.2959 20.6646 15.2532 20.5886 15.1772C20.5126 15.1011 20.4698 14.998 20.4698 14.8905C20.469 13.6551 19.9779 12.4706 19.1043 11.5971C18.2308 10.7236 17.0463 10.2324 15.8109 10.2316C15.7034 10.2316 15.6003 10.1889 15.5243 10.1128C15.4482 10.0368 15.4055 9.9337 15.4055 9.82618C15.4055 9.71866 15.4482 9.61555 15.5243 9.53952C15.6003 9.46349 15.7034 9.42078 15.8109 9.42078C17.2611 9.42249 18.6513 9.99932 19.6767 11.0247C20.7021 12.0501 21.2789 13.4404 21.2807 14.8905C21.2807 14.998 21.2379 15.1011 21.1619 15.1772C21.0859 15.2532 20.9828 15.2959 20.8752 15.2959Z" fill="#FF630B"/>
</svg>
