<svg width="28" height="28" viewBox="0 0 28 28" fill="none" xmlns="http://www.w3.org/2000/svg">
<path d="M17.3955 7.67676C17.3954 6.99179 17.1922 6.32223 16.8116 5.75275C16.4309 5.18326 15.89 4.73943 15.2572 4.47737C14.6243 4.21531 13.9279 4.14679 13.2562 4.28047C12.5844 4.41416 11.9673 4.74405 11.483 5.22843C10.9987 5.71281 10.6689 6.32992 10.5353 7.00173C10.4017 7.67354 10.4703 8.36988 10.7324 9.0027C10.9946 9.63552 11.4385 10.1764 12.008 10.5569C12.5776 10.9375 13.2471 11.1406 13.9321 11.1406C14.8504 11.1395 15.7307 10.7742 16.38 10.1248C17.0293 9.47542 17.3945 8.59503 17.3955 7.67676ZM11.2891 7.67676C11.2892 7.15403 11.4442 6.64307 11.7347 6.20849C12.0252 5.7739 12.438 5.43521 12.921 5.23524C13.4039 5.03526 13.9354 4.98299 14.448 5.08502C14.9607 5.18706 15.4316 5.43882 15.8012 5.80848C16.1708 6.17813 16.4225 6.64908 16.5244 7.16176C16.6263 7.67445 16.574 8.20586 16.3739 8.68878C16.1739 9.17171 15.8351 9.58447 15.4005 9.87487C14.9658 10.1653 14.4548 10.3203 13.9321 10.3203C13.2313 10.3195 12.5594 10.0407 12.0639 9.54508C11.5684 9.04949 11.2897 8.37757 11.2891 7.67676Z" fill="#FF630B"/>
<path d="M27.8372 27.3753L24.4936 18.6096C24.4639 18.532 24.4114 18.4653 24.343 18.4181C24.2746 18.371 24.1935 18.3458 24.1104 18.3457H17.7823C17.8209 18.2827 17.8594 18.2215 17.898 18.1582C20.333 14.127 21.5583 10.6006 21.5407 7.6784C21.541 5.66043 20.7397 3.72498 19.313 2.29782C17.8864 0.870663 15.9512 0.0687014 13.9332 0.0683595C11.9153 0.0680176 9.97981 0.869323 8.55265 2.296C7.12549 3.72267 6.32353 5.65785 6.32319 7.67582C6.30561 10.6006 7.53092 14.1275 9.96584 18.1582C10.0045 18.2222 10.043 18.2834 10.0816 18.3457H3.7535C3.67042 18.3458 3.58931 18.371 3.52089 18.4181C3.45246 18.4653 3.39995 18.532 3.3703 18.6096L0.0271732 27.3753C0.00335231 27.4374 -0.00498914 27.5043 0.00286957 27.5704C0.0107283 27.6364 0.0345508 27.6996 0.0722788 27.7544C0.110007 27.8092 0.160506 27.8539 0.219412 27.8848C0.278318 27.9157 0.343861 27.9318 0.410376 27.9317H27.454C27.5205 27.9318 27.586 27.9157 27.6449 27.8848C27.7038 27.8539 27.7543 27.8092 27.7921 27.7544C27.8298 27.6996 27.8536 27.6364 27.8615 27.5704C27.8693 27.5043 27.861 27.4374 27.8372 27.3753ZM7.14373 7.67652C7.14389 6.78505 7.31963 5.90234 7.66092 5.07879C8.00222 4.25524 8.50238 3.50697 9.13285 2.87672C9.76332 2.24646 10.5118 1.74656 11.3354 1.40555C12.1591 1.06454 13.0419 0.889104 13.9333 0.889258C14.8248 0.889412 15.7075 1.06515 16.5311 1.40645C17.3546 1.74774 18.1029 2.2479 18.7332 2.87837C19.3634 3.50885 19.8633 4.25729 20.2043 5.08096C20.5453 5.90463 20.7208 6.7874 20.7206 7.67887C20.7558 13.505 15.3089 20.6907 13.9322 22.4138C12.5555 20.6914 7.10834 13.5075 7.14373 7.67652ZM13.6198 23.3279C13.6583 23.3731 13.7061 23.4095 13.7601 23.4344C13.814 23.4593 13.8727 23.4723 13.9322 23.4723C13.9916 23.4723 14.0503 23.4593 14.1043 23.4344C14.1582 23.4095 14.2061 23.3731 14.2446 23.3279C15.3336 22.0013 16.3432 20.6114 17.268 19.1656H23.8275L24.3525 20.5425L11.5343 25.1014L6.96538 19.1649H10.5958C11.5208 20.611 12.5306 22.001 13.6198 23.3279ZM11.52 25.9763H11.5223L19.1693 23.2575L22.1353 27.1114H8.33061L11.52 25.9763ZM4.03639 19.1649H5.93014L10.7212 25.3904L5.88303 27.1111H1.00569L4.03639 19.1649ZM23.1715 27.1114L19.9819 22.9671L24.6459 21.3085L26.8591 27.1114H23.1715Z" fill="#FF630B"/>
</svg>
