<svg width="191" height="91" viewBox="0 0 191 91" fill="none" xmlns="http://www.w3.org/2000/svg">
<rect x="100.641" y="0.0439453" width="89.8021" height="90" fill="#FF630B"/>
<rect y="16.6914" width="143.683" height="56.7036" fill="black"/>
<path d="M22.0501 37.441H30.8004C30.8004 33.577 29.8785 30.7714 28.0345 29.0242C26.2241 27.2434 23.2738 26.353 19.1837 26.353C15.2276 26.353 12.2773 27.3106 10.3328 29.2258C8.38824 31.141 7.41598 33.9298 7.41598 37.5922C7.41598 39.709 7.76801 41.4226 8.47205 42.733C9.20963 44.0434 10.1148 45.1018 11.1877 45.9082C12.294 46.7146 13.4842 47.3698 14.7582 47.8738C16.0322 48.3778 17.2056 48.8818 18.2784 49.3858C19.3848 49.8562 20.29 50.4442 20.9941 51.1498C21.7316 51.8218 22.1004 52.7458 22.1004 53.9218C22.1004 54.8962 21.8322 55.7194 21.2958 56.3914C20.7929 57.0634 20.0553 57.3994 19.0831 57.3994C18.1779 57.3994 17.4403 57.097 16.8703 56.4922C16.3004 55.8538 16.0154 54.7618 16.0154 53.2162V52.3594H6.96338V53.6194C6.96338 55.501 7.23159 57.0802 7.76801 58.357C8.30442 59.6338 9.07552 60.6754 10.0813 61.4818C11.1206 62.2546 12.3778 62.7922 13.853 63.0946C15.3617 63.4306 17.0883 63.5986 19.0328 63.5986C23.1565 63.5986 26.308 62.7418 28.4871 61.0282C30.6663 59.281 31.7559 56.4922 31.7559 52.6618C31.7559 50.4778 31.3704 48.7138 30.5993 47.3698C29.8617 45.9922 28.923 44.8834 27.7831 44.0434C26.6432 43.2034 25.4195 42.5314 24.112 42.0274C22.8045 41.4898 21.5808 40.969 20.4409 40.465C19.301 39.961 18.3455 39.373 17.5744 38.701C16.8368 37.9954 16.468 37.0546 16.468 35.8786C16.468 35.0722 16.7027 34.3498 17.1721 33.7114C17.6414 33.0394 18.379 32.7034 19.3848 32.7034C20.29 32.7034 20.9605 33.0898 21.3964 33.8626C21.8322 34.6018 22.0501 35.509 22.0501 36.5842V37.441Z" fill="white"/>
<path d="M48.206 27.0586L44.8366 51.9562H44.7361L41.9199 27.0586L32.8678 27.0586L39.0031 63.0442H49.2621L52.38 38.8522H52.4806L55.5985 63.0442H65.8575L71.9928 27.0586H62.9407L60.4263 51.9562H60.3257L56.6546 27.0586H48.206Z" fill="white"/>
<path d="M73.8696 27.0586V63.0442H83.2234V27.0586H73.8696Z" fill="white"/>
<path d="M101.265 37.441H110.016C110.016 33.577 109.094 30.7714 107.25 29.0242C105.439 27.2434 102.489 26.353 98.3989 26.353C94.4428 26.353 91.4925 27.3106 89.548 29.2258C87.6035 31.141 86.6313 33.9298 86.6313 37.5922C86.6313 39.709 86.9833 41.4226 87.6873 42.733C88.4249 44.0434 89.3301 45.1018 90.4029 45.9082C91.5093 46.7146 92.6995 47.3698 93.9735 47.8738C95.2475 48.3778 96.4209 48.8818 97.4937 49.3858C98.6001 49.8562 99.5053 50.4442 100.209 51.1498C100.947 51.8218 101.316 52.7458 101.316 53.9218C101.316 54.8962 101.047 55.7194 100.511 56.3914C100.008 57.0634 99.2706 57.3994 98.2983 57.3994C97.3931 57.3994 96.6556 57.097 96.0856 56.4922C95.5157 55.8538 95.2307 54.7618 95.2307 53.2162V52.3594H86.1787V53.6194C86.1787 55.501 86.4469 57.0802 86.9833 58.357C87.5197 59.6338 88.2908 60.6754 89.2966 61.4818C90.3359 62.2546 91.5931 62.7922 93.0683 63.0946C94.577 63.4306 96.3035 63.5986 98.2481 63.5986C102.372 63.5986 105.523 62.7418 107.702 61.0282C109.882 59.281 110.971 56.4922 110.971 52.6618C110.971 50.4778 110.586 48.7138 109.815 47.3698C109.077 45.9922 108.138 44.8834 106.998 44.0434C105.858 43.2034 104.635 42.5314 103.327 42.0274C102.02 41.4898 100.796 40.969 99.6562 40.465C98.5163 39.961 97.5608 39.373 96.7897 38.701C96.0521 37.9954 95.6833 37.0546 95.6833 35.8786C95.6833 35.0722 95.918 34.3498 96.3874 33.7114C96.8567 33.0394 97.5943 32.7034 98.6001 32.7034C99.5053 32.7034 100.176 33.0898 100.612 33.8626C101.047 34.6018 101.265 35.509 101.265 36.5842V37.441Z" fill="white"/>
<path d="M128.276 37.441H137.027C137.027 33.577 136.105 30.7714 134.261 29.0242C132.45 27.2434 129.5 26.353 125.41 26.353C121.454 26.353 118.503 27.3106 116.559 29.2258C114.614 31.141 113.642 33.9298 113.642 37.5922C113.642 39.709 113.994 41.4226 114.698 42.733C115.436 44.0434 116.341 45.1018 117.414 45.9082C118.52 46.7146 119.71 47.3698 120.984 47.8738C122.258 48.3778 123.432 48.8818 124.505 49.3858C125.611 49.8562 126.516 50.4442 127.22 51.1498C127.958 51.8218 128.326 52.7458 128.326 53.9218C128.326 54.8962 128.058 55.7194 127.522 56.3914C127.019 57.0634 126.281 57.3994 125.309 57.3994C124.404 57.3994 123.666 57.097 123.096 56.4922C122.526 55.8538 122.242 54.7618 122.242 53.2162V52.3594H113.189V53.6194C113.189 55.501 113.458 57.0802 113.994 58.357C114.53 59.6338 115.302 60.6754 116.307 61.4818C117.347 62.2546 118.604 62.7922 120.079 63.0946C121.588 63.4306 123.314 63.5986 125.259 63.5986C129.383 63.5986 132.534 62.7418 134.713 61.0282C136.892 59.281 137.982 56.4922 137.982 52.6618C137.982 50.4778 137.596 48.7138 136.825 47.3698C136.088 45.9922 135.149 44.8834 134.009 44.0434C132.869 43.2034 131.646 42.5314 130.338 42.0274C129.031 41.4898 127.807 40.969 126.667 40.465C125.527 39.961 124.572 39.373 123.8 38.701C123.063 37.9954 122.694 37.0546 122.694 35.8786C122.694 35.0722 122.929 34.3498 123.398 33.7114C123.868 33.0394 124.605 32.7034 125.611 32.7034C126.516 32.7034 127.187 33.0898 127.622 33.8626C128.058 34.6018 128.276 35.509 128.276 36.5842V37.441Z" fill="white"/>
<path d="M170.935 72.1303L177.271 72.1303L177.271 68.8038C178.813 68.8038 180.087 68.8879 181.093 69.0558C182.065 69.1903 182.837 69.3919 183.406 69.6607C183.943 69.9295 184.312 70.2655 184.513 70.6687C184.714 71.0383 184.815 71.4751 184.815 71.9791C184.815 72.6847 184.63 73.2559 184.261 73.6927C183.893 74.0959 183.239 74.4151 182.3 74.6503C181.361 74.8519 180.104 74.9863 178.528 75.0535C176.919 75.1207 174.908 75.1543 172.494 75.1543C170.08 75.1543 168.085 75.1207 166.509 75.0535C164.9 74.9863 163.626 74.8519 162.687 74.6503C161.749 74.4151 161.095 74.0791 160.726 73.6423C160.357 73.1719 160.173 72.5503 160.173 71.7775C160.173 70.6687 160.693 69.9463 161.732 69.6103C162.604 69.2743 163.995 69.1063 165.906 69.1063L165.906 60.0342C163.727 60.0342 161.883 60.3198 160.374 60.8911C158.832 61.4623 157.575 62.2519 156.602 63.2599C155.63 64.2679 154.926 65.4775 154.49 66.8887C154.054 68.2663 153.836 69.7783 153.836 71.4247C153.836 74.1799 154.256 76.4311 155.094 78.1783C155.898 79.9255 157.088 81.3031 158.664 82.3111C160.24 83.2855 162.184 83.9575 164.498 84.3271C166.811 84.6631 169.476 84.8311 172.494 84.8311C175.478 84.8311 178.126 84.7471 180.439 84.5791C182.753 84.3775 184.697 83.9239 186.273 83.2183C187.849 82.5127 189.039 81.4711 189.843 80.0935C190.615 78.7159 191 76.8343 191 74.4487C191 73.6423 190.95 72.8527 190.849 72.0799C190.749 71.2735 190.581 70.5343 190.346 69.8622C190.078 69.1566 189.693 68.535 189.19 67.9974C188.687 67.4262 188.05 66.9894 187.279 66.6871L187.279 66.5863L190.447 66.3846L190.447 60.0342L170.935 60.0342L170.935 72.1303Z" fill="white"/>
<path d="M161.883 44.4776L177.12 47.048L177.12 41.8064L161.883 44.3768L161.883 44.4776ZM154.54 38.5304L190.447 29.7608L190.447 39.74L184.161 40.6976L184.161 48.1568L190.447 49.1144L190.447 58.9424L154.54 50.324L154.54 38.5304Z" fill="white"/>
<path d="M170.03 19.1937L161.279 19.1937L161.279 17.4297C161.279 15.0105 162.738 13.8009 165.654 13.8009C167.163 13.8009 168.269 14.1201 168.973 14.7585C169.678 15.3633 170.03 16.2537 170.03 17.4297L170.03 19.1937ZM154.54 28.5681L190.447 28.5681L190.447 19.1937L176.768 19.1937L176.768 15.9177C176.768 12.0537 175.846 9.13051 174.002 7.14811C172.125 5.13211 169.325 4.12411 165.604 4.12411C164.028 4.12411 162.57 4.32571 161.229 4.7289C159.888 5.1321 158.731 5.77051 157.759 6.64411C156.753 7.48411 155.965 8.55931 155.395 9.86971C154.825 11.1801 154.54 12.7257 154.54 14.5065L154.54 28.5681Z" fill="white"/>
</svg>
