<svg width="58" height="56" viewBox="0 0 58 56" fill="none" xmlns="http://www.w3.org/2000/svg">
<path d="M48.8953 20.9125C48.5672 16.1219 46.5328 11.6594 43.0875 8.20312C39.3141 4.42969 34.3047 2.35156 29 2.35156C23.6953 2.35156 18.6859 4.42969 14.9125 8.21406C11.4672 11.6594 9.43281 16.1328 9.10469 20.9234C4.54375 21.4594 1 25.3422 1 30.0453C1 35.1203 5.13437 39.2547 10.2094 39.2547H14.6828C15.6453 39.2547 16.4328 38.4672 16.4328 37.5047V22.5969C16.4328 21.6344 15.6453 20.8469 14.6828 20.8469H12.6156C13.3484 12.4578 20.4141 5.85156 29 5.85156C37.5859 5.85156 44.6406 12.4578 45.3844 20.8469H43.3172C42.3547 20.8469 41.5672 21.6344 41.5672 22.5969V30.0562V37.5156V43.225C41.5672 45.3141 39.8609 47.0203 37.7719 47.0203H33.5719C32.8609 45.1828 31.0891 43.8813 29 43.8813C26.2984 43.8813 24.1109 46.0797 24.1109 48.7703C24.1109 51.4719 26.3094 53.6594 29 53.6594C31.0781 53.6594 32.8609 52.3578 33.5719 50.5203H37.7719C41.7969 50.5203 45.0672 47.25 45.0672 43.225V39.2656H47.7906C52.8656 39.2656 57 35.1312 57 30.0562C57 25.3422 53.4562 21.4594 48.8953 20.9125ZM12.9328 35.7547H10.2094C7.05937 35.7547 4.5 33.1953 4.5 30.0453C4.5 26.8953 7.05937 24.3359 10.2094 24.3359H12.9328V35.7547ZM29 50.1484C28.2344 50.1484 27.6109 49.525 27.6109 48.7594C27.6109 47.9937 28.2344 47.3703 29 47.3703C29.7656 47.3703 30.3891 47.9937 30.3891 48.7594C30.3891 49.525 29.7656 50.1484 29 50.1484ZM47.7906 35.7547H45.0672V30.0453V24.3359H47.7906C50.9406 24.3359 53.5 26.8953 53.5 30.0453C53.5 33.1953 50.9406 35.7547 47.7906 35.7547Z" stroke="#FF8719" stroke-width="2"/>
</svg>
