<svg width="57" height="56" viewBox="0 0 57 56" fill="none" xmlns="http://www.w3.org/2000/svg">
<path d="M29.1763 21.4152L18.9738 31.6177L14.0125 26.6652C13.6842 26.3368 13.2388 26.1523 12.7744 26.1523C12.31 26.1523 11.8647 26.3368 11.5363 26.6652C11.2079 26.9936 11.0234 27.4389 11.0234 27.9033C11.0234 28.3677 11.2079 28.8131 11.5363 29.1414L17.74 35.3714C17.9026 35.5342 18.0956 35.6632 18.308 35.7513C18.5205 35.8394 18.7482 35.8847 18.9782 35.8847C19.2081 35.8847 19.4359 35.8394 19.6483 35.7513C19.8608 35.6632 20.0538 35.5342 20.2163 35.3714L31.6525 23.8914C31.9809 23.5631 32.1654 23.1177 32.1654 22.6533C32.1654 22.1889 31.9809 21.7436 31.6525 21.4152C31.3242 21.0868 30.8788 20.9023 30.4144 20.9023C29.95 20.9023 29.5047 21.0868 29.1763 21.4152Z" stroke="#FF8719" stroke-width="2"/>
<path d="M38.695 11.3095C33.6576 10.9198 28.9238 8.74837 25.3425 5.18453L24.3188 4.12578C23.962 3.76887 23.5385 3.48575 23.0723 3.29259C22.6062 3.09942 22.1065 3 21.6019 3C21.0973 3 20.5976 3.09942 20.1314 3.29259C19.6653 3.48575 19.2417 3.76887 18.885 4.12578L17.8525 5.15828C14.2712 8.72212 9.53738 10.8936 4.50001 11.2833C3.54451 11.3725 2.65654 11.8145 2.0094 12.5232C1.36225 13.2318 1.00238 14.1561 1.00001 15.1158V21.1358C0.995857 27.6666 2.72553 34.0814 6.01229 39.7249C9.29905 45.3683 14.0251 50.0381 19.7075 53.257C20.2831 53.5813 20.9325 53.7517 21.5931 53.7517C22.2538 53.7517 22.9032 53.5813 23.4788 53.257C29.1671 50.047 33.9012 45.3843 37.1972 39.7454C40.4932 34.1065 42.233 27.6936 42.2388 21.162V15.142C42.2354 14.1755 41.8694 13.2454 41.2132 12.5357C40.557 11.826 39.6584 11.3884 38.695 11.3095ZM38.695 21.162C38.7018 27.0752 37.1378 32.884 34.1629 37.9943C31.188 43.1047 26.9091 47.3331 21.7638 50.247C21.7127 50.2746 21.6555 50.289 21.5975 50.289C21.5395 50.289 21.4823 50.2746 21.4313 50.247C16.283 47.3416 11.9986 43.1211 9.01608 38.0171C6.0336 32.9131 4.46004 27.1086 4.45626 21.197V15.142C4.456 15.0559 4.48833 14.9728 4.54675 14.9096C4.60518 14.8463 4.68538 14.8074 4.77126 14.8008C10.6458 14.3371 16.1623 11.793 20.3288 7.62578L21.3525 6.60203C21.3842 6.56898 21.4222 6.54266 21.4643 6.52462C21.5064 6.50658 21.5517 6.4972 21.5975 6.49703C21.6427 6.49605 21.6876 6.50406 21.7297 6.52058C21.7717 6.5371 21.8101 6.56181 21.8425 6.59328L22.8663 7.62578C27.0341 11.7898 32.5504 14.3308 38.4238 14.792C38.5096 14.7987 38.5898 14.8375 38.6483 14.9008C38.7067 14.9641 38.739 15.0471 38.7388 15.1333L38.695 21.162Z" stroke="#FF8719" stroke-width="2"/>
</svg>
