<svg width="34" height="29" viewBox="0 0 34 29" fill="none" xmlns="http://www.w3.org/2000/svg">
<g clip-path="url(#clip0_1772_4398)">
<path d="M9.19 28.4202C6.49414 23.173 3.45069 18.1117 0.0800009 13.2702C0.0191545 13.1884 -0.0106346 13.0876 -0.00404451 12.9858C0.00254555 12.8841 0.0450886 12.788 0.115981 12.7147C0.186874 12.6414 0.281498 12.5957 0.382979 12.5857C0.484461 12.5757 0.586188 12.6021 0.669997 12.6602C3.56925 14.661 6.36298 16.8106 9.03999 19.1002C9.09668 19.1499 9.16299 19.1875 9.23479 19.2105C9.30659 19.2335 9.38236 19.2415 9.45738 19.234C9.5324 19.2265 9.60508 19.2036 9.6709 19.1669C9.73672 19.1301 9.79428 19.0802 9.84 19.0202C11.84 16.6102 21.46 5.22022 33.02 0.0202162C33.1045 -0.0237171 33.2027 -0.0333583 33.2942 -0.00670027C33.3856 0.0199578 33.4633 0.0808593 33.511 0.163328C33.5586 0.245798 33.5727 0.343478 33.5501 0.436033C33.5276 0.528589 33.4702 0.60889 33.39 0.660216C22 9.03022 12.5 24.5002 10.2 28.4302C10.1486 28.5192 10.0745 28.5929 9.98523 28.6438C9.89599 28.6947 9.79482 28.721 9.69208 28.72C9.58934 28.719 9.48871 28.6907 9.4005 28.638C9.31228 28.5853 9.23964 28.5102 9.19 28.4202Z" fill="#FF8719"/>
</g>
<defs>
<clipPath id="clip0_1772_4398">
<rect width="33.55" height="28.73" fill="white"/>
</clipPath>
</defs>
</svg>
