<svg width="85" height="27" viewBox="0 0 85 27" fill="none" xmlns="http://www.w3.org/2000/svg">
<g clip-path="url(#clip0_59_3225)">
<path d="M43.9599 8.59764C43.9115 12.3438 47.3676 14.4342 49.971 15.6772C52.6459 16.9523 53.5444 17.7702 53.5337 18.9107C53.5138 20.6559 51.4001 21.4262 49.4222 21.4561C45.9714 21.5085 43.9649 20.5433 42.3698 19.8134L41.1267 25.5123C42.7271 26.2348 45.6905 26.8649 48.7634 26.8926C55.9768 26.8926 60.696 23.404 60.7215 17.9953C60.7498 11.1308 51.0302 10.7508 51.0966 7.68256C51.1195 6.7522 52.0256 5.75938 54.0112 5.50695C54.994 5.37943 57.707 5.28184 60.783 6.66958L61.9902 1.15572C60.3361 0.565626 58.2101 0.000576019 55.5631 0.000576019C48.7737 0.000576019 43.9985 3.5366 43.9599 8.59764ZM73.5907 0.475515C72.2736 0.475515 71.1636 1.22826 70.6682 2.38341L60.3643 26.4876H67.5723L69.0067 22.6038H77.8148L78.6469 26.4876H85L79.4561 0.475515H73.5907ZM74.5991 7.50235L76.6793 17.2702H70.9823L74.5991 7.50235ZM35.2205 0.475842L29.5388 26.4873H36.4076L42.0866 0.475191H35.2205M25.0594 0.475191L17.9101 18.1804L15.0181 3.1264C14.6788 1.44589 13.3387 0.475515 11.8505 0.475515H0.163691L0 1.23087C2.39926 1.74094 5.12523 2.56362 6.77676 3.44389C7.78746 3.98161 8.07566 4.45167 8.4077 5.72946L13.8852 26.4876H21.1437L32.2721 0.475515L25.0594 0.475191Z" fill="url(#paint0_linear_59_3225)"/>
</g>
<defs>
<linearGradient id="paint0_linear_59_3225" x1="3907.79" y1="80.8379" x2="3984.06" y2="-2681.1" gradientUnits="userSpaceOnUse">
<stop stop-color="white"/>
<stop offset="1" stop-color="#254AA5"/>
</linearGradient>
<clipPath id="clip0_59_3225">
<rect width="85" height="27" fill="white"/>
</clipPath>
</defs>
</svg>
