<svg width="72" height="56" viewBox="0 0 72 56" fill="none" xmlns="http://www.w3.org/2000/svg">
<g clip-path="url(#clip0_59_3213)">
<path d="M13.0894 55.7212V52.0148C13.0894 50.5937 12.2248 49.6673 10.7429 49.6673C10.0021 49.6673 9.19942 49.9144 8.64367 50.7175C8.21167 50.0379 7.59432 49.6673 6.66817 49.6673C6.05054 49.6673 5.43348 49.8525 4.93932 50.5321V49.7909H3.64276V55.7212H4.93932V52.4471C4.93932 51.3971 5.49507 50.9027 6.35964 50.9027C7.22364 50.9027 7.6562 51.4588 7.6562 52.4471V55.7212H8.95276V52.4471C8.95276 51.3971 9.56982 50.9027 10.3725 50.9027C11.2371 50.9027 11.6691 51.4588 11.6691 52.4471V55.7212H13.0894ZM32.2906 49.7909H30.1916V47.9994H28.8951V49.7909H27.722V50.9643H28.8948V53.6827C28.8948 55.0419 29.4505 55.8448 30.9324 55.8448C31.4882 55.8448 32.1053 55.6596 32.5378 55.4125L32.1671 54.3004C31.7967 54.5475 31.3647 54.6094 31.0559 54.6094C30.4386 54.6094 30.1916 54.2388 30.1916 53.6208V50.9643H32.2906V49.7909ZM43.2807 49.667C42.5399 49.667 42.046 50.0379 41.7372 50.5321V49.7909H40.4407V55.7212H41.7372V52.3854C41.7372 51.3971 42.1692 50.8411 42.9719 50.8411C43.2189 50.8411 43.5277 50.903 43.7746 50.9646L44.145 49.7292C43.8981 49.6673 43.5277 49.6673 43.2807 49.6673V49.667ZM26.6724 50.285C26.0547 49.8525 25.1904 49.6673 24.2643 49.6673C22.7827 49.6673 21.7949 50.4085 21.7949 51.5823C21.7949 52.5709 22.5357 53.1267 23.8323 53.3121L24.4496 53.374C25.1289 53.4973 25.4993 53.6827 25.4993 53.9917C25.4993 54.4239 25.0054 54.7329 24.1408 54.7329C23.2765 54.7329 22.5973 54.4239 22.165 54.1152L21.5477 55.1035C22.2269 55.5977 23.1531 55.8448 24.0789 55.8448C25.8078 55.8448 26.7958 55.0419 26.7958 53.9298C26.7958 52.8796 25.9931 52.3235 24.7582 52.1384L24.1408 52.0764C23.5851 52.0145 23.1531 51.8913 23.1531 51.5207C23.1531 51.0881 23.5851 50.8411 24.2643 50.8411C25.0054 50.8411 25.7462 51.1498 26.1166 51.3352L26.6724 50.285ZM61.1241 49.6673C60.383 49.6673 59.8891 50.0379 59.5803 50.5321V49.7909H58.2837V55.7212H59.5803V52.3854C59.5803 51.3971 60.0126 50.8411 60.815 50.8411C61.0622 50.8411 61.371 50.903 61.618 50.9646L61.9884 49.7292C61.7414 49.6673 61.371 49.6673 61.1241 49.6673ZM44.5773 52.756C44.5773 54.5475 45.812 55.8448 47.7262 55.8448C48.5904 55.8448 49.2078 55.6596 49.8251 55.1654L49.2078 54.1152C48.7139 54.4859 48.22 54.671 47.6643 54.671C46.6147 54.671 45.8739 53.9298 45.8739 52.756C45.8739 51.6442 46.6147 50.9027 47.6643 50.8411C48.22 50.8411 48.7139 51.0262 49.2078 51.3971L49.8251 50.3469C49.2078 49.8525 48.5904 49.6673 47.7262 49.6673C45.812 49.6673 44.5773 50.9646 44.5773 52.756ZM56.5552 52.756V49.7909H55.2586V50.5321C54.8263 49.9763 54.209 49.6673 53.4063 49.6673C51.7393 49.6673 50.4428 50.9646 50.4428 52.756C50.4428 54.5475 51.7393 55.8448 53.4063 55.8448C54.2706 55.8448 54.8882 55.5361 55.2586 54.98V55.7212H56.5552V52.756ZM51.8009 52.756C51.8009 51.7058 52.4801 50.8411 53.5914 50.8411C54.641 50.8411 55.3821 51.6442 55.3821 52.756C55.3821 53.8063 54.641 54.671 53.5914 54.671C52.4801 54.6091 51.8009 53.8063 51.8009 52.756ZM36.304 49.6673C34.5752 49.6673 33.3402 50.9027 33.3402 52.756C33.3402 54.6094 34.5749 55.8448 36.3656 55.8448C37.2299 55.8448 38.0945 55.5977 38.7737 55.0419L38.1561 54.1152C37.6622 54.4859 37.0449 54.7329 36.4275 54.7329C35.6248 54.7329 34.8221 54.3623 34.6368 53.3118H39.0206V52.818C39.0825 50.9027 37.9713 49.6673 36.304 49.6673ZM36.304 50.7792C37.1064 50.7792 37.6625 51.2736 37.7857 52.2003H34.6987C34.8221 51.3971 35.3779 50.7792 36.304 50.7792ZM68.4712 52.756V47.4434H67.1746V50.5321C66.7423 49.9763 66.125 49.6673 65.3223 49.6673C63.6553 49.6673 62.3588 50.9646 62.3588 52.756C62.3588 54.5475 63.6553 55.8448 65.3223 55.8448C66.1869 55.8448 66.8042 55.5361 67.1746 54.98V55.7212H68.4712V52.756ZM63.7172 52.756C63.7172 51.7058 64.3961 50.8411 65.5076 50.8411C66.5573 50.8411 67.2981 51.6442 67.2981 52.756C67.2981 53.8063 66.5573 54.671 65.5076 54.671C64.3961 54.6091 63.7172 53.8063 63.7172 52.756ZM20.3746 52.756V49.7909H19.078V50.5321C18.6458 49.9763 18.0284 49.6673 17.2257 49.6673C15.5588 49.6673 14.2622 50.9646 14.2622 52.756C14.2622 54.5475 15.5588 55.8448 17.2257 55.8448C18.0903 55.8448 18.7076 55.5361 19.078 54.98V55.7212H20.3746V52.756ZM15.5588 52.756C15.5588 51.7058 16.238 50.8411 17.3492 50.8411C18.3988 50.8411 19.1399 51.6442 19.1399 52.756C19.1399 53.8063 18.3988 54.671 17.3492 54.671C16.238 54.6091 15.5588 53.8063 15.5588 52.756Z" fill="white"/>
<path d="M26.2401 4.75586H45.6885V39.721H26.2401V4.75586Z" fill="#FF5F00"/>
<path d="M27.475 22.2393C27.475 15.1352 30.809 8.83393 35.9333 4.75662C32.1674 1.79144 27.4134 0 22.2272 0C9.94022 0 0 9.94577 0 22.2393C0 34.5326 9.94022 44.4786 22.2269 44.4786C27.4132 44.4786 32.1671 42.6872 35.9333 39.7217C30.809 35.7063 27.475 29.3434 27.475 22.2393Z" fill="#EB001B"/>
<path d="M71.9286 22.2393C71.9286 34.5326 61.9883 44.4786 49.7016 44.4786C44.5154 44.4786 39.7614 42.6872 35.9952 39.7217C41.1815 35.6447 44.4538 29.3434 44.4538 22.2393C44.4538 15.1352 41.1196 8.83393 35.9952 4.75662C39.7611 1.79144 44.5154 0 49.7016 0C61.9883 0 71.9286 10.0077 71.9286 22.2393Z" fill="#F79E1B"/>
</g>
<defs>
<clipPath id="clip0_59_3213">
<rect width="72" height="56" fill="white"/>
</clipPath>
</defs>
</svg>
