<svg width="65" height="65" viewBox="0 0 65 65" fill="none" xmlns="http://www.w3.org/2000/svg">
<g clip-path="url(#clip0_59_3242)">
<path d="M64.0278 40.3594C59.6855 57.7794 42.0362 68.3688 24.6411 64.0262C7.22055 59.6839 -3.36886 42.0354 0.973696 24.6406C5.316 7.22055 22.9396 -3.36886 40.3601 0.973698C57.7553 5.29061 68.3703 22.9391 64.0278 40.3594Z" fill="url(#paint0_linear_59_3242)"/>
<path d="M47.9746 28.4512C48.6094 24.1348 45.334 21.7988 40.8145 20.25L42.2871 14.3848L38.7324 13.4961L37.3105 19.209C36.3711 18.9805 35.4062 18.752 34.4414 18.5488L35.8633 12.8105L32.3086 11.9219L30.8613 17.7617C30.0742 17.584 29.3125 17.4062 28.5762 17.2285V17.2031L23.6504 15.9844L22.7109 19.793C22.7109 19.793 25.3516 20.4023 25.3008 20.4277C26.748 20.7832 27.002 21.748 26.9512 22.5098L25.2754 29.1875C25.377 29.2129 25.5039 29.2383 25.6562 29.3145C25.5293 29.2891 25.4023 29.2637 25.2754 29.2129L22.9395 38.5566C22.7617 38.9883 22.3047 39.6484 21.3145 39.3945C21.3398 39.4453 18.7246 38.7598 18.7246 38.7598L16.9473 42.8477L21.5937 44.0156C22.457 44.2441 23.2949 44.4473 24.1328 44.6758L22.6602 50.5918L26.2148 51.4805L27.6875 45.6152C28.6523 45.8691 29.6172 46.123 30.5312 46.3516L29.084 52.1914L32.6387 53.0801L34.1113 47.1641C40.2051 48.3066 44.7754 47.8496 46.6797 42.3398C48.2285 37.9219 46.6035 35.3574 43.4043 33.6816C45.7656 33.1484 47.5176 31.5996 47.9746 28.4512ZM39.8242 39.877C38.7324 44.2949 31.2676 41.9082 28.8555 41.2988L30.8105 33.4531C33.2227 34.0625 40.9922 35.2559 39.8242 39.877ZM40.9414 28.375C39.9258 32.4121 33.7305 30.3555 31.7246 29.8477L33.502 22.7383C35.5078 23.2461 41.9824 24.1855 40.9414 28.375Z" fill="white"/>
</g>
<defs>
<linearGradient id="paint0_linear_59_3242" x1="3248.24" y1="-1.56" x2="3248.24" y2="6499.34" gradientUnits="userSpaceOnUse">
<stop stop-color="#F9AA4B"/>
<stop offset="1" stop-color="#F7931A"/>
</linearGradient>
<clipPath id="clip0_59_3242">
<rect width="65" height="65" fill="white"/>
</clipPath>
</defs>
</svg>
